<mxfile host="app.diagrams.net" modified="2020-04-07T09:48:11.739Z" agent="5.0 (Windows NT 10.0; Win64; x64) AppleWebKit/537.36 (KHTML, like Gecko) Chrome/80.0.3987.163 Safari/537.36" etag="2jxdhwsVCBcUS29d0JZL" version="12.9.9" type="github">
  <diagram id="tA2afh_-YDf6GMGmA9HH" name="Page-1">
    <mxGraphModel dx="716" dy="344" grid="1" gridSize="10" guides="1" tooltips="1" connect="1" arrows="1" fold="1" page="1" pageScale="1" pageWidth="300" pageHeight="650" math="1" shadow="0">
      <root>
        <mxCell id="0" />
        <mxCell id="1" parent="0" />
        <mxCell id="OI4N2DKApf9-VBQtxZiM-3" value="&lt;font style=&quot;font-size: 10px&quot;&gt;BLE Advertising package scanning&lt;/font&gt;" style="rounded=1;whiteSpace=wrap;html=1;" parent="1" vertex="1">
          <mxGeometry x="249" y="48.88" width="100" height="50" as="geometry" />
        </mxCell>
        <mxCell id="OI4N2DKApf9-VBQtxZiM-90" style="edgeStyle=orthogonalEdgeStyle;rounded=0;orthogonalLoop=1;jettySize=auto;html=1;entryX=0;entryY=0.5;entryDx=0;entryDy=0;entryPerimeter=0;exitX=1;exitY=0.5;exitDx=0;exitDy=0;" parent="1" source="SKX8NXjnuF0aCmSNlCDS-1" target="OI4N2DKApf9-VBQtxZiM-18" edge="1">
          <mxGeometry relative="1" as="geometry">
            <mxPoint x="369.6299999999999" y="157.51724137931035" as="sourcePoint" />
          </mxGeometry>
        </mxCell>
        <mxCell id="OI4N2DKApf9-VBQtxZiM-68" style="edgeStyle=orthogonalEdgeStyle;rounded=0;orthogonalLoop=1;jettySize=auto;html=1;exitX=0.5;exitY=0;exitDx=0;exitDy=0;exitPerimeter=0;entryX=0.5;entryY=1;entryDx=0;entryDy=0;" parent="1" source="OI4N2DKApf9-VBQtxZiM-18" target="OI4N2DKApf9-VBQtxZiM-21" edge="1">
          <mxGeometry relative="1" as="geometry" />
        </mxCell>
        <mxCell id="OI4N2DKApf9-VBQtxZiM-18" value="&lt;span style=&quot;font-size: 8px&quot;&gt;\(RSSI_1 \gt U_1\)&lt;/span&gt;" style="strokeWidth=2;html=1;shape=mxgraph.flowchart.decision;whiteSpace=wrap;" parent="1" vertex="1">
          <mxGeometry x="399" y="125" width="70" height="60" as="geometry" />
        </mxCell>
        <mxCell id="OI4N2DKApf9-VBQtxZiM-69" style="edgeStyle=orthogonalEdgeStyle;rounded=0;orthogonalLoop=1;jettySize=auto;html=1;" parent="1" source="OI4N2DKApf9-VBQtxZiM-19" target="OI4N2DKApf9-VBQtxZiM-22" edge="1">
          <mxGeometry relative="1" as="geometry">
            <mxPoint x="534" y="90" as="targetPoint" />
          </mxGeometry>
        </mxCell>
        <mxCell id="OI4N2DKApf9-VBQtxZiM-19" value="&lt;span style=&quot;font-size: 8px&quot;&gt;\(RSSI_2 \lt U_2\)&lt;/span&gt;" style="strokeWidth=2;html=1;shape=mxgraph.flowchart.decision;whiteSpace=wrap;" parent="1" vertex="1">
          <mxGeometry x="499" y="125" width="70" height="60" as="geometry" />
        </mxCell>
        <mxCell id="OI4N2DKApf9-VBQtxZiM-70" style="edgeStyle=orthogonalEdgeStyle;rounded=0;orthogonalLoop=1;jettySize=auto;html=1;entryX=0.5;entryY=1;entryDx=0;entryDy=0;" parent="1" source="OI4N2DKApf9-VBQtxZiM-20" target="OI4N2DKApf9-VBQtxZiM-23" edge="1">
          <mxGeometry relative="1" as="geometry" />
        </mxCell>
        <mxCell id="OI4N2DKApf9-VBQtxZiM-77" style="edgeStyle=orthogonalEdgeStyle;rounded=0;orthogonalLoop=1;jettySize=auto;html=1;exitX=0.5;exitY=1;exitDx=0;exitDy=0;exitPerimeter=0;" parent="1" source="OI4N2DKApf9-VBQtxZiM-20" edge="1">
          <mxGeometry relative="1" as="geometry">
            <mxPoint x="634.2857142857142" y="210" as="targetPoint" />
          </mxGeometry>
        </mxCell>
        <mxCell id="OI4N2DKApf9-VBQtxZiM-20" value="&lt;i&gt;&lt;font style=&quot;font-size: 10px&quot;&gt;$$j \le n$$&lt;/font&gt;&lt;/i&gt;" style="strokeWidth=2;html=1;shape=mxgraph.flowchart.decision;whiteSpace=wrap;" parent="1" vertex="1">
          <mxGeometry x="599" y="125" width="70" height="60" as="geometry" />
        </mxCell>
        <mxCell id="OI4N2DKApf9-VBQtxZiM-75" style="edgeStyle=orthogonalEdgeStyle;rounded=0;orthogonalLoop=1;jettySize=auto;html=1;exitX=0;exitY=0.5;exitDx=0;exitDy=0;entryX=1;entryY=0.5;entryDx=0;entryDy=0;" parent="1" source="OI4N2DKApf9-VBQtxZiM-21" target="OI4N2DKApf9-VBQtxZiM-3" edge="1">
          <mxGeometry relative="1" as="geometry" />
        </mxCell>
        <mxCell id="OI4N2DKApf9-VBQtxZiM-21" value="&lt;span style=&quot;font-size: 8px&quot;&gt;\(j=0\)&lt;/span&gt;" style="rounded=0;whiteSpace=wrap;html=1;" parent="1" vertex="1">
          <mxGeometry x="399" y="63.88" width="70" height="20" as="geometry" />
        </mxCell>
        <mxCell id="OI4N2DKApf9-VBQtxZiM-74" style="edgeStyle=orthogonalEdgeStyle;rounded=0;orthogonalLoop=1;jettySize=auto;html=1;" parent="1" source="OI4N2DKApf9-VBQtxZiM-22" target="OI4N2DKApf9-VBQtxZiM-21" edge="1">
          <mxGeometry relative="1" as="geometry" />
        </mxCell>
        <mxCell id="OI4N2DKApf9-VBQtxZiM-22" value="&lt;span style=&quot;font-size: 8px&quot;&gt;\(j=0\)&lt;/span&gt;" style="rounded=0;whiteSpace=wrap;html=1;" parent="1" vertex="1">
          <mxGeometry x="504" y="63.88" width="60" height="20" as="geometry" />
        </mxCell>
        <mxCell id="OI4N2DKApf9-VBQtxZiM-73" style="edgeStyle=orthogonalEdgeStyle;rounded=0;orthogonalLoop=1;jettySize=auto;html=1;entryX=1;entryY=0.5;entryDx=0;entryDy=0;" parent="1" source="OI4N2DKApf9-VBQtxZiM-23" target="OI4N2DKApf9-VBQtxZiM-22" edge="1">
          <mxGeometry relative="1" as="geometry" />
        </mxCell>
        <mxCell id="OI4N2DKApf9-VBQtxZiM-23" value="&lt;span style=&quot;font-size: 8px&quot;&gt;\(j++\)&lt;/span&gt;" style="rounded=0;whiteSpace=wrap;html=1;" parent="1" vertex="1">
          <mxGeometry x="601.5" y="65" width="65" height="17.75" as="geometry" />
        </mxCell>
        <mxCell id="OI4N2DKApf9-VBQtxZiM-25" value="&lt;div style=&quot;text-align: left&quot;&gt;&lt;span style=&quot;font-size: 10px&quot;&gt;Output code: \(\chi_1\)&lt;/span&gt;&lt;/div&gt;" style="rounded=0;whiteSpace=wrap;html=1;" parent="1" vertex="1">
          <mxGeometry x="589" y="210" width="90" height="30" as="geometry" />
        </mxCell>
        <mxCell id="OI4N2DKApf9-VBQtxZiM-26" value="" style="verticalLabelPosition=bottom;verticalAlign=top;html=1;shadow=0;dashed=0;strokeWidth=1;shape=mxgraph.android.phone2;strokeColor=#c0c0c0;" parent="1" vertex="1">
          <mxGeometry x="149" y="40" width="50" height="85" as="geometry" />
        </mxCell>
        <mxCell id="OI4N2DKApf9-VBQtxZiM-32" value="&lt;font style=&quot;font-size: 10px&quot;&gt;RSSI results sorting&lt;/font&gt;" style="text;html=1;strokeColor=none;fillColor=none;align=center;verticalAlign=middle;whiteSpace=wrap;rounded=0;" parent="1" vertex="1">
          <mxGeometry x="235" y="190" width="120" height="20" as="geometry" />
        </mxCell>
        <mxCell id="OI4N2DKApf9-VBQtxZiM-35" value="&lt;i style=&quot;font-size: 10px&quot;&gt;Start&lt;br&gt;j=0&lt;/i&gt;" style="text;html=1;strokeColor=none;fillColor=none;align=center;verticalAlign=middle;whiteSpace=wrap;rounded=0;" parent="1" vertex="1">
          <mxGeometry x="154" y="140" width="40" height="20" as="geometry" />
        </mxCell>
        <mxCell id="OI4N2DKApf9-VBQtxZiM-37" value="" style="endArrow=classic;html=1;entryX=0;entryY=0.6;entryDx=0;entryDy=0;entryPerimeter=0;" parent="1" target="OI4N2DKApf9-VBQtxZiM-3" edge="1">
          <mxGeometry width="50" height="50" relative="1" as="geometry">
            <mxPoint x="202" y="79" as="sourcePoint" />
            <mxPoint x="219" y="83" as="targetPoint" />
          </mxGeometry>
        </mxCell>
        <mxCell id="OI4N2DKApf9-VBQtxZiM-40" value="" style="endArrow=classic;html=1;exitX=0.5;exitY=1;exitDx=0;exitDy=0;entryX=0.5;entryY=0;entryDx=0;entryDy=0;" parent="1" source="OI4N2DKApf9-VBQtxZiM-3" edge="1">
          <mxGeometry width="50" height="50" relative="1" as="geometry">
            <mxPoint x="369" y="190" as="sourcePoint" />
            <mxPoint x="299.005" y="130.00000000000006" as="targetPoint" />
          </mxGeometry>
        </mxCell>
        <mxCell id="OI4N2DKApf9-VBQtxZiM-42" value="" style="endArrow=classic;html=1;exitX=1;exitY=0.5;exitDx=0;exitDy=0;exitPerimeter=0;entryX=0;entryY=0.5;entryDx=0;entryDy=0;entryPerimeter=0;" parent="1" source="OI4N2DKApf9-VBQtxZiM-18" target="OI4N2DKApf9-VBQtxZiM-19" edge="1">
          <mxGeometry width="50" height="50" relative="1" as="geometry">
            <mxPoint x="369" y="190" as="sourcePoint" />
            <mxPoint x="419" y="140" as="targetPoint" />
          </mxGeometry>
        </mxCell>
        <mxCell id="OI4N2DKApf9-VBQtxZiM-43" value="" style="endArrow=classic;html=1;exitX=1;exitY=0.5;exitDx=0;exitDy=0;exitPerimeter=0;entryX=0;entryY=0.5;entryDx=0;entryDy=0;entryPerimeter=0;" parent="1" source="OI4N2DKApf9-VBQtxZiM-19" target="OI4N2DKApf9-VBQtxZiM-20" edge="1">
          <mxGeometry width="50" height="50" relative="1" as="geometry">
            <mxPoint x="369" y="190" as="sourcePoint" />
            <mxPoint x="419" y="140" as="targetPoint" />
          </mxGeometry>
        </mxCell>
        <mxCell id="OI4N2DKApf9-VBQtxZiM-78" value="&lt;font style=&quot;font-size: 10px&quot;&gt;yes&lt;/font&gt;" style="text;html=1;strokeColor=none;fillColor=none;align=center;verticalAlign=middle;whiteSpace=wrap;rounded=0;" parent="1" vertex="1">
          <mxGeometry x="464" y="130" width="40" height="20" as="geometry" />
        </mxCell>
        <mxCell id="OI4N2DKApf9-VBQtxZiM-79" value="&lt;font style=&quot;font-size: 10px&quot;&gt;yes&lt;/font&gt;" style="text;html=1;strokeColor=none;fillColor=none;align=center;verticalAlign=middle;whiteSpace=wrap;rounded=0;" parent="1" vertex="1">
          <mxGeometry x="561.5" y="130" width="40" height="20" as="geometry" />
        </mxCell>
        <mxCell id="OI4N2DKApf9-VBQtxZiM-80" value="&lt;font style=&quot;font-size: 10px&quot;&gt;yes&lt;/font&gt;" style="text;html=1;strokeColor=none;fillColor=none;align=center;verticalAlign=middle;whiteSpace=wrap;rounded=0;" parent="1" vertex="1">
          <mxGeometry x="626.5" y="180" width="40" height="20" as="geometry" />
        </mxCell>
        <mxCell id="OI4N2DKApf9-VBQtxZiM-82" value="&lt;span style=&quot;font-size: 10px&quot;&gt;no&lt;br&gt;&lt;/span&gt;" style="text;html=1;strokeColor=none;fillColor=none;align=center;verticalAlign=middle;whiteSpace=wrap;rounded=0;" parent="1" vertex="1">
          <mxGeometry x="529" y="83.88" width="40" height="20" as="geometry" />
        </mxCell>
        <mxCell id="OI4N2DKApf9-VBQtxZiM-84" value="&lt;span style=&quot;font-size: 10px&quot;&gt;no&lt;br&gt;&lt;/span&gt;" style="text;html=1;strokeColor=none;fillColor=none;align=center;verticalAlign=middle;whiteSpace=wrap;rounded=0;" parent="1" vertex="1">
          <mxGeometry x="429" y="82.75" width="40" height="20" as="geometry" />
        </mxCell>
        <mxCell id="OI4N2DKApf9-VBQtxZiM-85" value="&lt;span style=&quot;font-size: 10px&quot;&gt;no&lt;br&gt;&lt;/span&gt;" style="text;html=1;strokeColor=none;fillColor=none;align=center;verticalAlign=middle;whiteSpace=wrap;rounded=0;" parent="1" vertex="1">
          <mxGeometry x="629" y="82.75" width="40" height="20" as="geometry" />
        </mxCell>
        <mxCell id="SKX8NXjnuF0aCmSNlCDS-1" value="&lt;table border=&quot;1&quot; width=&quot;100%&quot; style=&quot;width: 100% ; height: 100% ; border-collapse: collapse&quot;&gt;&lt;tbody&gt;&lt;tr&gt;&lt;td align=&quot;center&quot;&gt;&lt;b&gt;Device&lt;/b&gt;&lt;/td&gt;&lt;td align=&quot;center&quot;&gt;&lt;b&gt;Code&lt;/b&gt;&lt;/td&gt;&lt;td align=&quot;center&quot;&gt;&lt;b&gt;RSSI&lt;/b&gt;&lt;/td&gt;&lt;/tr&gt;&lt;tr&gt;&lt;td align=&quot;center&quot;&gt;&lt;font style=&quot;font-size: 9px&quot;&gt;Device 1&lt;/font&gt;&lt;/td&gt;&lt;td align=&quot;center&quot;&gt;&lt;span style=&quot;font-size: 8px&quot;&gt;\(\chi_a\)&lt;/span&gt;&lt;br&gt;&lt;/td&gt;&lt;td align=&quot;center&quot;&gt;&lt;span style=&quot;font-size: 8px&quot;&gt;\(RSSI_1\)&lt;/span&gt;&lt;br&gt;&lt;/td&gt;&lt;/tr&gt;&lt;tr&gt;&lt;td align=&quot;center&quot;&gt;&lt;font style=&quot;font-size: 9px&quot;&gt;Device 2&lt;/font&gt;&lt;/td&gt;&lt;td align=&quot;center&quot;&gt;&lt;span style=&quot;font-size: 8px&quot;&gt;\(\chi_b\)&lt;/span&gt;&lt;br&gt;&lt;/td&gt;&lt;td align=&quot;center&quot;&gt;&lt;span style=&quot;font-size: 8px&quot;&gt;\(RSSI_2\)&lt;/span&gt;&lt;br&gt;&lt;/td&gt;&lt;/tr&gt;&lt;/tbody&gt;&lt;/table&gt;" style="text;html=1;strokeColor=none;fillColor=none;overflow=fill;" vertex="1" parent="1">
          <mxGeometry x="220" y="130" width="150" height="60" as="geometry" />
        </mxCell>
        <mxCell id="SKX8NXjnuF0aCmSNlCDS-5" value="" style="shape=image;imageAspect=0;aspect=fixed;verticalLabelPosition=bottom;verticalAlign=top;image=data:image/png,iVBORw0KGgoAAAANSUhEUgAAAQAAAAEACAYAAABccqhmAAAABGdBTUEAALGPC/xhBQAAAAFzUkdCAK7OHOkAAAAgY0hSTQAAeiYAAICEAAD6AAAAgOgAAHUwAADqYAAAOpgAABdwnLpRPAAAAAZiS0dEAP8A/wD/oL2nkwAAAAlwSFlzAAG/wgABv8IBI6D9SAAAGXhJREFUeNrtnXm0HUWdxz+/ui8hEIEAgZAQDAKigoiIbDrHBRwZGR1ZFAUdRXFQsxBwQSSEQYZVCBA2RVFm1GGGUZElghsIoomQEHZCQBAEwhICSCCEvPe65o+qzrt5Wd52b3Xf299Pzj05JznnVd1+9f30r7qrq0G0NIbDcPsZ7iAwZ1jRXRJCpMKFP5823ALDHQCYJCBERbAggMMM95rhHpMExEBwRXdANAwPvB4433AHerwkIPpEAmg/tgbOM9xBkoDoCwmgPdkaOFcSEH0hAbQvqgREn0gA7c14ggQOlgTEmpAA2p/xhOmAJCBWQwKoBpKAWCMSQHXIJfAxSUDkSADVIr8mcIjHa9mwkAAqyDjgHElAgARQVcYBMyQBIQFUF1UCQgKoOGMJEviEJFBNJAAxljAdkAQqiAQgQBKoLBKAyMkl8ElJoDpIAKKeXAKHSQLVQAIQvdkSONtwn5IE2h8JQKyJMcBZkkD7IwGItVEvgZok0J5IAGJdSAJtjgQg+mIM8G1JoD2RAER/kATaFAlA9Jd8OvCvkkD7IAGIgbAFoRL4jCTQHkgAYqBsDpxpuM9KAq2PBCAGw+bAGZJA6yMBiMFSL4EOSaA1kQDEUJAEWhwJQAwVSaCFkQBEIxhNkMDhkkBrIQGIRjEaON1wn/P4DiSBlkACEI0kl8ARSAItgQQgGs1mwKlBAjZMQ6zc6LcjmkGUAEdAbRjUiu6PWAsSgGgWUQLdR4CTBEqKBCCayaZIAqVGAhDNRhIoMRKASEEugS9IAuVCAhCp2BQ4xeg+EhguCZQDCUCkZFPgPwwvCZQECUCkZhPgZMN/EUmgcCQAUQSbAN+SBIpHAhBFoUqgBEgAokhGESTwJSSBQpAARNGMIkwHJIECkABEGRiFJFAIEoBYGy8ALydsbxRBAl8G1pME0iABiLUxBzidIIJUjCJIYBKSQBJ0hFscwzDYGfgo0NHAH32PhxMtCGBvYESirzQC2MvgVbD54LrBJ2q6eqgCEGvDgNc89h3g30lbCWwMnGj4yagSaCoSgOgD3+mx7wInkl4C0yWB5iIBiP6wwmOXANNRJdBWSACiH3QDdHrse6SXwEYECUxBEmg4EoDoJ7kEakVJYHqUwAhJoHFIAGIAdANZLoETgOcTNp5L4CjwIzR0G4OOohggKyXwfUIlkFoCJxhMBSSBBqAjKAbBKhKYBixJ2PiGwDSDo4H1NYSHho6eGCTdQFenJ7sUOJ70Ejg+VgKSwBDQkRsgLvxxDjfMVf7wecC6PNkPkQRaEh21AWAYGRkev6+HEzy2uVX+ivRqEnguYeOSwBCp+ujtN4axHrvTzaIPgF0IHABsCjbHcMuKWq/exGcBHgCuBDr7990sA3+XYc8Tnh3YINEhWA/Y06ALuB2sS88OiIZiGOvzfgzb13ALDOfjp9Nw3zNqo4uqBCxMSQ4z3PK6fjXicyW4DQZ2VjWADsP9m+EWN7g/fX2WGu54cKoEBoAqgD4wjGHsxArm7hvP/G+u+28H7AKMLqoSKE8FsLJHGfi7DVsCvIt0lcBwQiXggXlgA+x3NZEA1oFhDGc3OrlrTeHPccDbgC2KkED5BACGZT5IYDFBAiMTHY7hwB4GGZJAv5AA1kIe/hXcvq7w59RJgDmGvZJq4JVRALFf9RLYm/QS8MBcSWDdSABrIJT9b6STe/sT/pxcApuTUAJlFUDsm/f4eySB8iIB9CKEf0c6WTiQ8OckrwTKLIDYv1wCz1LMdEASWAcSQB2G0cE2dPHQYMKf4wiBTCKBsgsg9rFoCYAksEYkgIhhODajm6eGEv6cZBJoBQHEfuYSeIb0Etg9SkAXBnshAZCHfzQZS/YBu4ihhT8nl8AYYHazJNAqAoh99R5/b5TA3sDrGn5A1kwuAedgrmGdXhIAJIAY/k3IeL6R4c+pl0BTKoFWEkDsby6BpwiVQFIJAM7gNkkgUGkBOBxhECzfJ5b9b2lKMyGg4wgSeLnBgWopAcQ+5xJ4mrQSGEaQQE0SCFRWAA5HhuGw98Xw79jU5uCtwFgaLIFWFEDsd1GVwDDgnQQJzDVsRZUlUFkBxODs5eESmhv+niaDBMYRrgk0RAKtKoDYd+/x9xm2iHBNYMOmNLQ6uQQ6qi6Byj414QGPN+ITLIlwwKHAWcCWVt3DDxCnXy7z+FmEV5GlZANgkod9fdIhUC4qPAI96zN6jsFE4L6EDTvgMOBsKi6BsLkKIw07GtgvcfNdwE/BZhd9HIqksqPP41nOEjLsJoNJpJfAoVRYAnE3pQ192ETkG6S7BgDQCXwf7JvAsz5seV5Jqjfy6sjIcHgy7OYogXsTNp9LYAYwtkoSiOHfyIcNRY8h3SPDACuAS8BPg2xJlcMPFRcArCaByaSXwCcJEhhXBQlYuPW6sQ/vGoxbeSXjNeAi8NPBXqjqhb962n/E9YMSSOATwDm0uQQMA/wosG8RjnOqV44DLAdmGpxk2IuerOjDUQrad7QNkBJMBw4BzgHflhII4WdTsFOALxP28kvFMuAcg1OAlzKFfyXtN9KGQI8E+EOUwD0JmzfgELBzwW/VThII38U2AzsNOJKwLDcVy4AZBqcDSxX+VWmfUdYgggQgw3IJ3J2weQM+DnZOu0ggfofNgTOBIwiLcFLxMnAGcKaHlxX+1Wn9EdYE6iqBW+I6gbsSNt82Eoh9H0NY+HQ4jV2p2BdLgdM8nO3hFc3510zrjq4m01MJ8KdYCRQhgZadDsQ+jyXc4fg0aZedvwSc7LFzgVdR+NdK642shPSSwETgzoTNG/CxVpRA7Os4wp2NQ0kb/heBkzx2AbBc4V83rTOqCqJOArNjJXBnwuZzCZwHfutWkEDoox8PzCTc3kzZ6eeB6T7s6/AaFV/k0x/KP6JKQAkkcHArSCCGfwLY+aHPSZ+yWQJM89QuAVYo/P2jvKOpZJRAAgeWWQIx/NsSSu8DSBv+xcBxHi6F7k6Fv/+UbySVmF4SmAjckbD5egm8vjwSGJ4nffsY/o+QNvzPAMd6sv80fJfm/AOjLKOoZaiTwBwLK9puT9h8ySTQgdEF1HYALgL2T9yBp4CvebIfG9altf0Dp+gR1JLUSeDWOB1ILYEDcgkUdxQ6MLoBewv4i4EPJu7AIuArnuxyw7oV/sEhAQySXhKYSDESmAl+HMk3us/D73aK4d83bfs8AUz1ZFfEdxAmbr59qOyegI3A43EYGTzpwkXBXQn3v1NgwJvAJhCedHsPSfYEzPdStl0slP3vTfR9cx4DjvZkv4h7CiZuXohehA0uHA63h+HmGs4n/HQZ7inDdTb4514JboNVi0SXf9d3GG524u/pDfew4T4MWPHXP9oDHcUGUDcduC1OB+YlbL4GbEmT19nHXXzw4Q07FxN28U3JX8CmeGyWUfNa298YJIAGUSeBuQQJzC26T40ivEMBHOxFCP+eibuwEJjkGXmdAVXfxquRSAANJH/c1GCuD3cHbi26T435XuDg3R6+Q9hPPyX3g5/kyX5jLFX4G4wE0HCyPDBtIwEH74nhf3vipu8xmOjpuKHnNW6ikUgATWGlBG73YTrQshIw/Pt9KPt3Ttz0XQYTM+xmRzfazKM56DZg0/D4sEL+KQ/zDXYBxhfdqwHwgOFfCo8jJ3l1Wj3zQ/iZHa6rKPzNQgJoKkECFiRwh4USulUkMAJsf2D7xO3eRnhl160Kf/ORAJqOh9asBDYBRiVuc46HiXHqhG71NR8JIAmrVAKtJIGU3OJhkoM7Q+wV/hRIAMkIlYDB01ECbwO2LrpXJeFmsEmGv8dTQ8/zp0MCSMrK6cDTHuZZuLJe4BN9peAGsEmQ3R/C31V0fyqFBJCcldOBZzzcbvBWqiuBX4NNBr9Q4S8GCaAQPFDDyJ7xuNsrWAl44Hqwo6D7Ic8wwhu7RWokgMLICM/VV04CHpgF/ijgkbC6T3P+opAACmU1CbwVmFB0r5qIB64CPxXsUd3mKx4JoHBWkcC8NpaAB34K/hiwxxX+ciABlIKVEni2TSWQAVcAXwV7UuEvDxJAaVhNAjvRHhLoBv4H+BrwlMJfLiSAUtEjAXBzCQ/hbFN0r4ZAF/AT4OvAMwp/+ZAASsdKCSyOEtiJ1pRAF3AZ2HFgixX+ciIBlJKWl0AncCnYNGCJdvEpLxJAaVlNAjsCbyi6V/1gBfA98NPBP68zf7mRAEpNy0ngNeBi8CeBvagtvIRoCB0YhlF7i+FuLGA//v58XjXcWQ63sdNOc0I0mlUkcEMJAl//ecVwpznchgq/EE1jFQn8tgTBz8N/ssO9TuEXounkEnBvKoEElhruRMON1Ku6hEjGSgnsUOA1gaWGOw7c+tpdvnXRb64l6SK8HJgXgCUFdeI54CaDV4s+GmLw6DZgCxLL7S2Bs4BDKEbko4Ad4/6GTwch6bafEE3FcBhurOEuN1x3CS4Czga3a/6KdCFEkwjht/GGu6Ik4c8/fwa3myQgRJOI4X+94X5muKwEoe/9uVUSaD10DaAFCHN+vw3YTOAA4hXAkrGVwds93Olgkdc1gZZAAig5MfzbgV0AfJhyhj9nK4NdPdwhCbQGEkBp6cDwgNsBuADYn3KHP2crg12BO4FFDkMPBZUXCaCUdGB0A/ZmQvj3K7pHA2Qr4B0O7srgSUmgvEgApSMPv9sJuAjYt+geDZJxwK6SQLmRAEqFy2fNbzO4GHhv0T0aIuMIlcDdGTwhCZQPCaA0hBtoHnaN4f+HonvUIMYiCZQWCaAEOFweid1i+Pcuuk8NZiywW5wOSAIlQgIoGIcjAxzsRQj/HkX3qUnkElAlUCIkgAKpC/+7fQj/O4ruU5MZC7zTwT0ZPC4JFI8EUBAh/IaD98Tw71J0nxKxJUEC92bwN0mgWCSAArA46A32AbuQ8C7AKjEGSaAUSACJ6Qm//WMM/45F96kgcgncJwkUhwSQEKOGZwRG9z/F8L+p6D4VjCqBgpEAEmE4PGZG94cJy3u3L7pPJSGXwP0Z9pgkkBYJIAGx7DfDPgrMpNxv9ymCMcDuQQLu0bAgShJIgQTQZHrC7w4GzgMmFN2nfpLvPJrqCcQtgD0cXhJIiATQRGL4neEOAc4FxhfdpwFwG3AH8EbSSWBzggQWSAJpkACaRF34DwVmEB6MaSXmefi6hVDuRFoJ7G5kC4Yx+tFMu443FQmgCcTw1wz3acLW3WOL7tMgeBC4zOAmQuWSWAK2R8ayBY7N/qpXDzQPCaDhGOA7DHc4cCbhAlcrshC4EnjBYDZhk4/kEvAsW+jxj1hLbIbUekgADcUBNsywzwOnE8rZVmUh8HOg0+BlggTGElYtppTAngaSQJOQABpGDbDhBkcCpwKbFd2jIbJSAJBhWFESGA22hyTQHCSAhlADWM/wXwJOBjZN2Hgn8Bgwksb+PusE4CEsX84lsCWwM2kloEqgCegNDkOmBjDC8JMJ4d8kYePdwOWEuwydzW7MkwE8A3wd+G8I/5CIHcAuNOyD8VmKhE23LxLAkHCAX9/wU4ETgY0TNt4N/Bj4qsEiEp2Ne0ngJ7EfqdgB7ALD7efZCFMBO2QkgEHjADYw+CpwArBRwsa7gMuAYwmvB096OqyTwLGESiCxBLjQePlDoQ6QBIaCBDAIXNjAc6SFs+BxwOsSNt8JXAp2HNjioo5BwRLYHvwFhpcEhogEMEDC3r1s6OF4wuAfmbD5FcAl4I+HbIlPmrnV6SWB1NOB7aIE9vcgCQwSCWAAxPBv5GEacAywQcLmXwMuBj8d7IWyrJHvdU3gR6SXwPkGksAg6Si6A61CeJ7fbww2HZgEjEjY/HLgQoNTwP6eJb343jeeDKO2GPgGeA98lnS3mGMlYObhOqPmi66MWgkJoB+EW05+E7CTgC8C6yVs/lVgpsFpwNKyhT/H0x0lYMfFNwKnlMC2oRIwJIGBoSlAH8T7zZuCnQJ8ibThXwbMsLCysLThz4mhixLgvwh3K1KxLfgLDf8RT7eZhna/UAWwDuKccjT4U4HPAcMSNv8ycDZwtodXfMnDn9OrEsinA6nG2TbAzDBdy641nG+V41YUEsBaCGcQvzlwBvAZ0h6rpcAZPuwgtCztgruhs5bpQEoJnG8482TXGObLcsG0jEgAayCWj2OAbwOfIu0zEy8Bp/qwceirrRb+nCiB5wqSwAR6KgFJYB1IAL2I4R9LKL8/SdrrJC8CJ3vsYuC1tHfUGk8vCXjgcCSBUqErJXXEsn88ofROHf4XgBM9dhFtEP6ceGEwSoAfkPbC4ATCdOCAuCtz0YejdEgAkRj+rcHOAz5O2mOzBJjmcd8FVrRL+HOCBPwSwgKq1BJ4PaESOEgSWB1NAVgZ/m1i+P+FtA/XPAdM83AZZJ2tOufvi7BYyKIEDODzpLursjVwbpwOXKnpQA+VrwBi+LeLr+pKHf5ngWM92Q8N37bhz4mhWxKeZeAHJNjDoI6tgfNUCaxKhQXQERf52A4x/P9M2vA/DXzNk/3IsK6qnJHi93wefD4dSCmB8QQJHCwJBCo7BTAywLYHfxHwgcTNLyKE/wrDsqqEPyfu6BMlYABHkG46MJ6e6cDPqz4dqHAF4AE/mrBwJCVPAEdXNfw5vSqBSymmEvh4eHlLdSuBCgsAPP7PwFTgr4ma/Bsw1ZP9rMrhz+klgf9L3PxWwNmGe1fiDZVKRWUFEMrQGh67Hmwq8GiTm3wUOMqT/aLqZWcPw+PfbjTp357kgXmEHZUrS2UFAPlKNe89Ngv4CvB4k5p6GGyyx64Jj6oq/DAcoxNwO4C/ENgnYeMeuAr80cDjVX5gqNICgPz+dLf3ZFcRdvl5ssFNPAhM9tR+aaDn1IG68L8R/AXABxM27oGrQ/jtb1UOP0gAwMqr0t6TXUmoBBY16Ec/AH6SJ/uV0YnCHzC6iHdgigr/VIU/IAFE6iTwM8L+dk8P8UfeZzDR438X3xZc9FcsBT0Lrzgf2C9h0x64FvwxCn8PEkAdUQKZJ/tfwk63zw7yR91t8OUM+70LewkW/dVKQd2qy/OBDyVs2gOz4pn/UYW/BwmgF3USuBz4BjDQvffnh/Bzi8NT9m28UhHDv20M//4Jm1b4xcCJi0NqhvuC4RYbzvfjM8/h9lz56pAk/XQ43IGGe6Wffezv52pwIxtxjjAchm1ruF82uI99fTLDXWvYG7RHoBgEBtBhuCMN91wfg22O4d6ZMvyhh+UWQAz/Gww3S+EXLUgNqA0z3ETDPb+WwfZHcG8PAy3tYCuzAGL4tzHcNTGQKQUwS+EXDaIGdAwz3BTDvdBroN0Mbuewg3D6wVZWAcTwTzDc1QWE/zrDtlP4RQOpAbXhhjvacH+PA+1Go7ZTuF5QzIOVZRRAXfivKiD81xu2vcLfPyr7OPDA6QZqKzz2HcMPA94N9k3IFnhqpN3lqryE4PkJYDNJv8HKr4Ap4P6iRVeiKcR5/gjDbQK70/NAS3H9KUsFUPyZ320fbJPy5U2tjSqAARLvIy/3sBzmFt2d0mA9m6qeS/oz/6/BpkD2F896hBcpi/6giZIYMr3CfwBpw//bnvAPQ+EfGBKAGBK28l0Kdi5wEGnD/ztgCmQPheswK4o+HC2HBCAGTQnCPxn8Ql2EHTwSgBgUvcJ/MGnDfwMwReEfOhKAGDAx/FsVGP7J4B9Q+IeOBCAGRFxgMw5sBunDfyMKf0ORAES/6Qk/MwjvT0wZ/pvAFP4GIwGIfmE9r02fARxC2rFzcwi/Vl02GglA9EkJwj8JsvsU/sYjAYj+kIf/ExRz5lf4m4QEINaFNxgDnEX68P8hhv9ehb95SABibWSEM/9ZwKGkHSu3xLJf4W8yehhIrI0tDM4krO1PGf4/ephsCn8SJACxNnaH5Nsc/cnDJIO7PYbC33wkALE2hiVury78gLbvToKuAYgyMDuG/y6FPy0SgCgahb9AJABRJHNi+O9U+ItBAhBFcWu42q/wF4kEIIrgNg+THMxX+ItFAhCpuc3DRAe3h9gr/EUiAYiU5Gd+hb8kSAAiFXNj+Ocp/OVBAhApmBvLfoW/ZEgAotnMB6Z0KPylRAIQzWS+wUQPtyr85UQCEM1ivsGkDG51QKbwlxIJQDSDO2L4/6zwlxsJQDQahb+FkABEI7kzhn+Owt8aSACiUdxtMFnhby0kANEI7o5n/j8p/K2FBCCGyj0x/H9U+FsPCUAMBYW/xZEAxGDJw3+Lwt+6SABiMNwXL/gp/C2OBCAGyv0h/PYHhb/1kQDEQLg/lP3uJodX+NsACUD0l3jm9zc5MoW/TZAARH9YAH4ybPB7Q2V/OyEBiL5YAH6yY9TvPa/g8UX3RzQQCUCsi4Xgpxgb3pjxosLfhujdgGJtLAQ/xeNvgKUKf5uiCkCsiQdj+H9rmMLfxkgAojcPgp+s8FcDCUDUozN/xZAARM5DMfy/UfirgwQgAB4Gpir81UN3AcTDYFM8dn0If3fR/REJUQVQbR4GOyqE3yv8FUQCqC6PhPBzncJfXSSAavJIKPu5zkDhrzASQPX4a8+ZX+GvOroIWC0eBab2lP16qq/qqAKoDo8BUz3ZLMN7hV+ABFAV8vBfaziFX6xEAmh/8vBfY5jCL1ZBAmhveoVfK/zEqkgA7cvjwNEKv1gXEkB78jhwjCe7WuEXoo0xHA53oOFeMZw33OOGOxgww4runhCimdQJYJnhnlD4hagQUQAHG+4Bw30MhV+I6mA4DPe+EH5zCr8YCP8PMspYmT+xl2gAAAAldEVYdGRhdGU6Y3JlYXRlADIwMTktMDUtMDFUMTY6NDM6MjYrMDE6MDC7vaIsAAAAJXRFWHRkYXRlOm1vZGlmeQAyMDE5LTA1LTAxVDE2OjQzOjI2KzAxOjAwyuAakAAAAEZ0RVh0c29mdHdhcmUASW1hZ2VNYWdpY2sgNi43LjgtOSAyMDE5LTAyLTAxIFExNiBodHRwOi8vd3d3LmltYWdlbWFnaWNrLm9yZ0F74sgAAAAYdEVYdFRodW1iOjpEb2N1bWVudDo6UGFnZXMAMaf/uy8AAAAYdEVYdFRodW1iOjpJbWFnZTo6aGVpZ2h0ADUxMsDQUFEAAAAXdEVYdFRodW1iOjpJbWFnZTo6V2lkdGgANTEyHHwD3AAAABl0RVh0VGh1bWI6Ok1pbWV0eXBlAGltYWdlL3BuZz+yVk4AAAAXdEVYdFRodW1iOjpNVGltZQAxNTU2NzI1NDA2rsPm+wAAABN0RVh0VGh1bWI6OlNpemUAMTEuMktCQvM40ZcAAABEdEVYdFRodW1iOjpVUkkAZmlsZTovLy4vdXBsb2Fkcy81Ni9wQXZwR3YzLzE5MTQvYmx1ZXRvb3RobG9nb18xMjE1MzQucG5n38r2AQAAAABJRU5ErkJggg==;" vertex="1" parent="1">
          <mxGeometry x="150.94" y="56.63" width="46.12" height="46.12" as="geometry" />
        </mxCell>
      </root>
    </mxGraphModel>
  </diagram>
</mxfile>
